<?xml version="1.0" standalone="no"?>
<!DOCTYPE svg PUBLIC "-//W3C//DTD SVG 1.1//EN" "http://www.w3.org/Graphics/SVG/1.1/DTD/svg11.dtd" >
<svg xmlns="http://www.w3.org/2000/svg" xmlns:xlink="http://www.w3.org/1999/xlink" version="1.1">
<metadata></metadata>
<defs>
<font id="2_nelson_shocard_dnaregular" horiz-adv-x="1081" >
<font-face units-per-em="2048" ascent="1638" descent="-410" />
<missing-glyph horiz-adv-x="731" />
<glyph horiz-adv-x="0" />
<glyph unicode="&#xd;" horiz-adv-x="731" />
<glyph unicode=" "  horiz-adv-x="731" />
<glyph unicode="&#x09;" horiz-adv-x="731" />
<glyph unicode="&#xa0;" horiz-adv-x="731" />
<glyph unicode="!" horiz-adv-x="436" d="M129 86q0 23 51 73t74 50q25 0 76 -50t51 -75t-51 -75t-74 -50q-27 0 -77 50t-50 77zM145 1518q-2 49 29 80.5t82 31.5q49 0 80 -31.5t29 -80.5l-23 -1106q-2 -39 -27 -74q-27 -41 -61 -41q-37 0 -64 41q-25 35 -24 74z" />
<glyph unicode="&#x22;" horiz-adv-x="450" d="M41 1522q-2 47 28.5 77.5t75.5 30.5q47 0 78 -30.5t27 -77.5l-23 -293q-2 -37 -22 -70q-27 -37 -60 -37q-35 0 -58.5 35t-25.5 72zM287 1522q-2 47 28.5 77.5t75.5 30.5q47 0 78 -30.5t27 -77.5l-23 -293q-2 -37 -22 -70q-27 -37 -60 -37q-35 0 -58.5 35t-25.5 72z" />
<glyph unicode="#" horiz-adv-x="1128" d="M2 604q14 53 72 53h143l62 217h-142q-59 0 -43 54q14 53 72 53h143l58 201q8 31 38.5 53t63.5 22q63 0 63 -57q0 -8 -2 -18l-57 -201h232l55 201q10 31 39.5 53t64.5 22q63 0 64 -57q0 -8 -2 -18l-58 -201h144q57 0 43 -53q-16 -53 -74 -54h-143l-62 -217h144 q57 0 43 -53q-16 -53 -74 -53h-144l-55 -201q-10 -31 -39.5 -53.5t-64.5 -22.5q-63 0 -64 58q0 8 4 18l56 201h-230l-57 -201q-8 -31 -39 -53.5t-63 -22.5q-63 0 -64 58q0 8 2 18l57 201h-143q-57 0 -43 53zM381 657h231l62 217h-230z" />
<glyph unicode="$" horiz-adv-x="884" d="M-8 811q0 29 6 57q12 66 92 66t80 -64q0 -12 -8 -38.5t-8 -43.5q0 -76 84 -126q76 -43 153 -39q90 2 158.5 49t75.5 127q4 66 -19.5 99.5t-89.5 64.5q-8 6 -154 69q-88 37 -147 78q-84 47 -74 139q12 127 164 172l-2 88q0 51 16 93q23 55 66 55q82 0 80 -148v-84 q141 -31 141 -92q0 -55 -61 -55q-37 0 -76 22q-66 41 -115 41q-18 0 -37 -6q-33 -12 -32 -45q0 -41 34 -63q57 -37 162 -86q131 -57 187 -88q135 -74 137 -203q4 -133 -105 -217q-96 -76 -245 -92l-6 -459q0 -39 -17 -86q-18 -61 -49 -62q-31 0 -49 62q-14 47 -15 86l-6 461 q-139 16 -227 82q-94 74 -94 186z" />
<glyph unicode="%" horiz-adv-x="1681" d="M-20 1257q0 158 115.5 269.5t279.5 111.5t279.5 -111.5t115.5 -269.5t-115.5 -269t-279.5 -111t-279.5 111.5t-115.5 268.5zM113 84q0 20 14 39l1040 1417q74 98 232 98q49 0 49 -41q0 -24 -23 -57l-1056 -1442q-72 -98 -170 -98q-33 0 -59.5 25.5t-26.5 58.5zM147 1298 q0 -115 82 -208q88 -100 201 -91q78 6 126 67.5t48 147.5q0 115 -86 213.5t-199 88.5q-76 -6 -124 -69t-48 -149zM840 381q0 158 115.5 269.5t277.5 111.5q164 0 279.5 -111.5t115.5 -269.5t-115.5 -269.5t-279.5 -111.5q-162 0 -277.5 111.5t-115.5 269.5zM1006 422 q0 -115 81 -209q88 -100 201 -90q78 6 126 67.5t48 147.5q0 115 -85.5 213t-198.5 88q-76 -6 -124 -68.5t-48 -148.5z" />
<glyph unicode="&#x26;" horiz-adv-x="2031" d="M-90 596q0 205 176 358.5t453 190.5q6 2 125 8l-258 236q-70 63 -70 131q0 117 174 116h549q68 0 67 -67q0 -68 -67 -68h-518l381 -358q20 -18 20 -47q-2 -47 -57 -47l-119 2q-651 -10 -614 -529q14 -215 217 -354q197 -137 444 -121q221 14 395 139q182 131 185 303 q2 74 2 338q0 61 37 97q31 29 75 28h527q29 0 48 -20t19 -47q0 -29 -19.5 -48.5t-47.5 -19.5h-410v-293q0 -219 -215 -379.5t-528 -177.5q-322 -14 -621 142q-350 184 -350 487z" />
<glyph unicode="'" horiz-adv-x="247" d="M63 1522q-2 47 29 77.5t76 30.5q47 0 77.5 -30.5t26.5 -77.5l-22 -293q-2 -37 -23 -70q-27 -37 -59 -37q-35 0 -58.5 35t-25.5 72z" />
<glyph unicode="(" horiz-adv-x="575" d="M6 840q0 639 178 944q147 256 402 256q53 0 53 -94q0 -97 -51 -107q-193 -35 -269 -197q-102 -219 -102 -802q0 -1004 346 -1004q41 0 41 -69q0 -47 -18 -84q-20 -43 -49 -43q-199 0 -347 264q-184 326 -184 936z" />
<glyph unicode=")" horiz-adv-x="839" d="M86 1948q0 94 53 94q252 0 402 -254q178 -307 178 -946q0 -608 -184 -936q-147 -262 -347 -262q-29 0 -48 40t-19 85q0 72 41 71q346 0 346 1002q0 584 -102 803q-76 162 -269 196q-51 10 -51 107z" />
<glyph unicode="+" horiz-adv-x="788" d="M205 610q0 37 81 118t120 81t119.5 -81t80.5 -122q0 -37 -80.5 -118.5t-117.5 -81.5q-41 0 -122 81.5t-81 122.5z" />
<glyph unicode="," horiz-adv-x="378" d="M86 88q-2 47 28.5 78t75.5 31q47 0 78 -31t27 -78l-23 -293q-2 -37 -22 -69q-27 -37 -60 -37q-35 0 -58 34.5t-26 71.5z" />
<glyph unicode="-" d="M113 543q0 35 26.5 58.5t53.5 23.5l589 20q57 2 95 -28.5t38 -75.5q0 -47 -38 -77t-95 -28l-589 23q-27 0 -53.5 23.5t-26.5 60.5z" />
<glyph unicode="." horiz-adv-x="393" d="M68 86q0 23 51 73t74 50q25 0 75.5 -50t50.5 -75t-50.5 -75t-73.5 -50q-27 0 -77 50t-50 77z" />
<glyph unicode="/" horiz-adv-x="772" d="M111 -252q0 10 2 23l348 1441q10 41 46 70t77 29q78 0 78 -76q-1 -11 -5 -23l-348 -1441q-8 -41 -44 -70t-77 -29q-78 0 -77 76z" />
<glyph unicode="0" horiz-adv-x="1751" d="M0 815q0 346 244.5 591t591.5 245q346 0 590.5 -245t244.5 -591t-244.5 -590.5t-590.5 -244.5t-591 244.5t-245 590.5zM201 815q0 -289 186 -492.5t449 -203.5q262 0 448 203.5t186 492.5t-186 492.5t-448 203.5t-448.5 -203.5t-186.5 -492.5z" />
<glyph unicode="1" horiz-adv-x="653" d="M47 1415q-4 29 19.5 59.5t52.5 43.5q197 113 301 120q41 0 69.5 -28.5t28.5 -69.5v-1442q0 -41 -28.5 -69.5t-69.5 -28.5t-69.5 28.5t-28.5 69.5v1350l-179 -78q-12 -6 -26 -6q-61 0 -70 51z" />
<glyph unicode="2" horiz-adv-x="1568" d="M-39 1085q0 217 209 377t498 174q328 18 579 -116q269 -144 269 -377q0 -272 -205 -432t-572 -181q-154 -6 -282 -77q-170 -92 -170 -244v-70h1018q27 0 47 -22.5t20 -50.5q0 -66 -67 -66h-1049q-86 0 -135 72q-23 35 -25 80q-2 4 0 86q2 186 250 299q182 84 397 96 q199 12 332 86q227 129 228 422q0 195 -156 307q-145 106 -361 106q-207 0 -397 -114q-217 -133 -217 -328q0 -18 6 -52t6 -52q0 -86 -84 -86q-45 0 -87 30.5t-48 77.5q-4 29 -4 55z" />
<glyph unicode="3" horiz-adv-x="1722" d="M-59 537q0 31 4 61q8 47 53 78t96 31q90 0 90 -89q0 -18 -7 -54t-7 -54q0 -172 182 -305q172 -125 393 -139q246 -16 445 121t213 350q35 512 -610 522h-119q-53 0 -56 47q0 27 21 45l377 356h-512q-68 0 -68 66q0 68 68 67h543q172 0 172 -114q0 -68 -68 -129l-258 -234 q57 -4 127 -8q272 -37 447 -189.5t175 -355.5q0 -301 -348 -483q-297 -155 -614 -139q-311 14 -525 172.5t-214 376.5z" />
<glyph unicode="4" horiz-adv-x="1386" d="M-31 371q0 20 13 45l786 1167q29 55 125 55q70 0 126 -31.5t56 -78.5v-1104h162q70 0 70 -66t-70 -65h-162v-225q0 -27 -24.5 -47.5t-53.5 -20.5t-53 19.5t-24 46.5v227h-854q-37 0 -67 21.5t-30 56.5zM215 424h705v1096z" />
<glyph unicode="5" horiz-adv-x="1730" d="M-53 543q0 25 2 49q6 47 53 78q41 31 92 30q94 0 94 -92q0 -16 -5 -47t-5 -47q0 -176 189 -311q176 -129 401 -144q244 -16 438.5 130.5t202.5 359.5q10 330 -246 444q-133 59 -387 60q-47 0 -135 -13.5t-119 -13.5q-51 0 -92 34t-39 87l74 407q16 80 98 80h486 q68 0 69 -67q0 -27 -18.5 -46.5t-46.5 -19.5h-383l-60 -360q68 27 330 26q270 0 461 -108q248 -143 248 -430q-1 -48 -7 -99q-35 -242 -315 -403.5t-622 -144.5q-315 14 -536.5 177t-221.5 384z" />
<glyph unicode="6" horiz-adv-x="1581" d="M-20 614q0 43 6 86q20 174 207 392l391 456q80 92 166 86q76 -8 75 -78q0 -31 -26 -61l-197 -225q113 18 225 8q274 -27 469 -203q203 -186 203 -440q0 -35 -4 -70q-31 -266 -260 -432q-215 -154 -494 -153q-303 0 -520 161q-242 178 -241 473zM180 592 q0 -215 152.5 -359.5t369.5 -144.5q242 0 422.5 173t180.5 413q0 217 -149.5 358.5t-367.5 141.5q-248 0 -428 -167t-180 -415z" />
<glyph unicode="7" horiz-adv-x="1021" d="M-47 1571q0 27 20.5 47t46.5 20h789q70 0 118 -47.5t48 -117.5l-608 -1383q-41 -90 -121 -90q-33 0 -58.5 27.5t-25.5 60.5q0 14 6 27l610 1386h-758q-27 0 -47 20.5t-20 49.5z" />
<glyph unicode="8" horiz-adv-x="1546" d="M-12 530q0 180 142 323.5t368 199.5q-211 96 -211 274q0 133 133 228.5t319 95.5q188 0 321.5 -95.5t133.5 -228.5q0 -178 -211 -274q225 -55 367.5 -199t142.5 -324q0 -227 -220 -388.5t-534 -161.5q-311 0 -531 161.5t-220 388.5zM184 539q0 -188 163 -321.5 t392 -133.5q231 0 394 133.5t163 321.5q0 186 -162.5 319t-394.5 133q-229 0 -392 -133t-163 -319zM444 1360q0 -125 121 -215q115 -84 244 -76q98 8 159.5 66.5t61.5 142.5q0 125 -123 217q-112 84 -241 76q-98 -6 -160 -66.5t-62 -144.5z" />
<glyph unicode="9" horiz-adv-x="1560" d="M-20 991q0 287 237 475q223 176 522 172q315 -4 523 -168q223 -178 223 -483q0 -172 -158 -403l-332 -486q-68 -98 -155 -98q-33 0 -58.5 22.5t-25.5 55.5q0 27 20 53l168 240q-109 -27 -223 -27q-293 2 -510 180q-231 188 -231 467zM176 954q4 -213 152.5 -359 t363.5 -146q242 0 419 162.5t173 416.5q-6 213 -158.5 359.5t-369.5 146.5q-238 0 -411 -170t-169 -410z" />
<glyph unicode=":" horiz-adv-x="434" d="M106 352q0 23 51.5 73t73.5 50q25 0 76 -50t51 -75t-51 -75t-74 -50q-27 0 -77 50.5t-50 76.5zM106 721q0 23 51.5 73t73.5 50q25 0 76 -50.5t51 -74.5q0 -25 -51 -75t-74 -50q-27 0 -77 50t-50 77z" />
<glyph unicode=";" horiz-adv-x="403" d="M80 475q0 23 51 73t74 50q25 0 76 -50t51 -75t-51 -75t-74 -50q-27 0 -77 50.5t-50 76.5zM100 88q-4 47 28 78t77 31q47 0 77.5 -31t26.5 -78l-22 -293q-2 -37 -25.5 -71.5t-58.5 -34.5t-57.5 34.5t-24.5 71.5z" />
<glyph unicode="&#x3e;" horiz-adv-x="811" d="M12 86q0 23 51.5 73t73.5 50q25 0 76 -50t51 -75t-51 -75t-74 -50q-27 0 -77 50t-50 77zM340 63q0 18 38 56.5t56 38.5t56 -38t38 -59q0 -16 -38 -54t-56 -38t-56 38t-38 56zM596 47q0 14 28.5 43t41.5 29q16 0 43.5 -29t27.5 -43t-28.5 -42t-40.5 -28q-16 0 -44 28 t-28 42z" />
<glyph unicode="?" horiz-adv-x="1873" d="M72 1112q0 164 161.5 306.5t419.5 199.5q123 27 279 27q338 0 588 -111q293 -134 301 -363q6 -154 -121 -292q-131 -145 -348 -213q-289 -90 -316 -103q-154 -72 -141 -194q2 -10 2 -19q0 -37 -35 -58.5t-76 -21.5q-70 0 -94 43q-20 35 -20 70q0 88 106.5 169t265.5 124 q272 72 377 131q184 109 174 293q-8 199 -174 330q-178 141 -463 141q-215 0 -417 -101q-248 -121 -248 -311q0 -74 47 -145q23 -35 22 -62q0 -66 -100 -65q-111 0 -150.5 72.5t-39.5 152.5zM678 92q0 25 53 77t78 52q27 0 80 -53t53 -80q0 -25 -53 -78t-78 -53 q-27 0 -80 54.5t-53 80.5z" />
<glyph unicode="@" horiz-adv-x="1277" d="M88 465q18 217 182 368.5t381 149.5q150 -2 275 -57q147 -64 213 -185q57 -104 57 -229q0 -115 -49 -199q-55 -92 -152 -114q-29 -6 -57 -6q-84 0 -143.5 50t-59.5 126v65v111q-25 -25 -153.5 -26t-135.5 -116q-4 -117 140 -116q16 0 46 7t44 7q27 0 26 -25 q0 -18 -20 -28q-55 -29 -115 -29q-49 0 -98 21q-55 14 -96 57t-41 98q2 86 71.5 140.5t184.5 50.5q137 -4 147 71q0 45 -33 58q-8 2 -73 6q-59 2 -140 -41q-18 -10 -38 -10q-49 0 -50 30q0 23 45 43q76 37 181 39q217 4 217 -149v-258q0 -133 94 -133q57 0 106.5 56 t49.5 140q0 195 -109 314q-123 131 -360 133q-285 2 -402 -232q-47 -92 -47 -190q0 -88 37 -158q51 -94 158 -151q94 -51 186 -52q20 0 39 4q66 12 66 -51q0 -49 -46 -55q-29 -4 -57 -4q-186 0 -330 127q-160 139 -141 342z" />
<glyph unicode="A" horiz-adv-x="1261" d="M-16 395q0 29 19.5 48.5t45.5 19.5h217l273 1093q20 82 135 82q119 0 139 -86l369 -1454q4 -12 4 -22q0 -76 -78 -76q-43 0 -82 28.5t-47 69.5l-53 228h-551l-58 -258q-6 -27 -34.5 -47.5t-57.5 -20.5t-44 20.5t-7 47.5l59 258h-180q-68 0 -69 69zM408 463h485l-246 1059 z" />
<glyph unicode="B" horiz-adv-x="1265" d="M4 98v1442q0 41 28.5 69.5t69.5 28.5h2h324q127 0 213 -71.5t86 -190.5q0 -178 -129 -215q256 0 422 -176q156 -168 156 -399q0 -240 -168 -411t-408 -171h-281q-29 0 -48 19.5t-19 48.5t19.5 48t47.5 19h211h5q186 10 316 139.5t130 313.5q0 186 -129 317t-313 133 q-28 1 -54.5 1t-52.5 -1h-4h-90q-78 0 -78 68q0 70 80 70h43q68 0 114 47t46 114q0 66 -46 114q-44 46 -109 46h-5h-8h-174v-1403q0 -41 -29 -69.5t-70 -28.5t-69.5 28.5t-28.5 69.5z" />
<glyph unicode="C" horiz-adv-x="1488" d="M-41 817q0 254 163 469t437 309q162 55 336 56q244 0 461 -109q65 -33 65 -82q0 -33 -28.5 -56.5t-71.5 -23.5t-84 25q-217 121 -426 121q-102 0 -197 -31q-203 -70 -326.5 -246t-123.5 -387q0 -143 63 -276q229 -481 783 -482q195 0 379 60q25 8 41 8q25 0 24 -14 q0 -16 -37 -39q-238 -139 -518 -139q-287 0 -528.5 145t-347.5 391q-63 145 -64 301z" />
<glyph unicode="D" horiz-adv-x="1134" d="M25 98v1442q0 41 28.5 69.5t69.5 28.5h127q360 0 571 -190q234 -211 234 -629q0 -420 -228 -639q-184 -178 -457 -178h-12q-41 0 -68.5 27.5t-27.5 58.5q0 47 57 47q199 0 351 150q188 186 188 527v7q-2 653 -575 682h-62v-1403q0 -41 -28.5 -69.5t-69.5 -28.5 t-69.5 28.5t-28.5 69.5z" />
<glyph unicode="E" horiz-adv-x="1124" d="M-6 1272q0 29 20.5 48t46.5 19h187v50q0 102 73.5 175.5t176.5 73.5h270q29 0 49.5 -20.5t20.5 -46.5q0 -29 -20.5 -49.5t-49.5 -20.5h-283q-41 0 -41 -41v-121h578q29 0 49.5 -19t20.5 -48t-20.5 -49.5t-49.5 -20.5h-578v-1024q0 -41 41 -41h283q29 0 49.5 -20.5 t20.5 -48.5q0 -27 -20.5 -47.5t-49.5 -20.5h-270q-102 0 -176 73.5t-74 176.5v952h-187q-27 0 -47 20.5t-20 49.5z" />
<glyph unicode="F" horiz-adv-x="966" d="M-23 1272q0 29 20.5 48t47.5 19h186v50q0 102 74 175.5t176 73.5h271q29 0 49 -20.5t20 -46.5q0 -29 -20.5 -49.5t-48.5 -20.5h-283q-41 0 -41 -41v-121h578q29 0 49 -19t20 -48t-20.5 -49.5t-48.5 -20.5h-578v-1104q0 -41 -28.5 -69.5t-69.5 -28.5t-70 28.5t-29 69.5 v1104h-186q-27 0 -47.5 20.5t-20.5 49.5z" />
<glyph unicode="G" horiz-adv-x="1495" d="M0 819q0 258 149.5 475t399.5 310q139 51 287 51q225 0 421 -115q59 -35 60 -84q0 -31 -25.5 -54.5t-64.5 -23.5t-78 25q-163 108 -347 108h-3q-104 0 -203 -36q-186 -68 -299 -238t-113 -377q0 -133 52 -260q88 -223 313 -360q201 -121 403 -121q123 0 199 51t76 147 v691q0 39 28.5 67.5t67.5 28.5q41 0 69.5 -28.5t28.5 -67.5v-748q0 -59 -116 -133q-88 -59 -185 -94q-137 -49 -284 -49q-260 0 -477.5 149.5t-307.5 398.5q-51 139 -51 287z" />
<glyph unicode="H" horiz-adv-x="1179" d="M18 1272q0 29 20.5 49t47.5 20h225v199q0 41 29 69.5t70 28.5t69.5 -28.5t28.5 -69.5v-199h393v199q0 41 28.5 69.5t69.5 28.5t70 -28.5t29 -69.5v-1442q0 -41 -29 -69.5t-70 -28.5t-69.5 28.5t-28.5 69.5v1106h-393v-1106q0 -41 -28.5 -69.5t-69.5 -28.5t-70 28.5 t-29 69.5v1106h-225q-27 0 -47.5 19.5t-20.5 48.5z" />
<glyph unicode="I" horiz-adv-x="319" d="M41 98v1442q0 41 28.5 69.5t69.5 28.5t70 -28.5t29 -69.5v-1442q0 -41 -29 -69.5t-70 -28.5t-69.5 28.5t-28.5 69.5z" />
<glyph unicode="J" horiz-adv-x="815" d="M4 61q0 37 23.5 65t60.5 28q20 0 41 -9q74 -30 149 -30h5q109 0 184.5 54t75.5 142v1227q0 41 28.5 69.5t69.5 28.5t69.5 -28.5t28.5 -69.5v-1221q0 -352 -487 -352q-80 0 -164 10.5t-84 85.5z" />
<glyph unicode="K" horiz-adv-x="1269" d="M-6 98v1442q0 41 28.5 69.5t69.5 28.5t69.5 -28.5t28.5 -69.5v-706q2 0 345 737q33 67 94 67h2q61 0 61 -49q0 -10 -4 -18l-346 -731q35 -2 195 -2q551 -4 655 -721q2 -12 2 -23q0 -39 -22 -63q-28 -31 -72 -31q-96 0 -111 104q-45 311 -121 424q-117 172 -411 172h-267 v-602q0 -41 -28.5 -69.5t-69.5 -28.5t-69.5 28.5t-28.5 69.5z" />
<glyph unicode="L" horiz-adv-x="722" d="M12 166v1374q0 41 29 69.5t70 28.5t69.5 -28.5t28.5 -69.5v-1403h364q29 0 48.5 -20t19.5 -49q0 -27 -19.5 -47.5t-48.5 -20.5h-395q-70 0 -118 48t-48 118z" />
<glyph unicode="M" horiz-adv-x="1501" d="M12 70l246 1478q14 90 137 90q119 0 135 -90q63 -410 191 -1226l190 1226q14 90 133 90q123 0 140 -98l239 -1442q2 -9 2 -17q-1 -29 -23 -51q-28 -30 -71 -30q-41 0 -73.5 28.5t-38.5 69.5l-201 1311l-197 -1280q-20 -129 -131 -129t-129 127l-196 1282l-205 -1339 q-12 -70 -80 -70q-29 0 -50.5 20.5t-17.5 49.5z" />
<glyph unicode="N" horiz-adv-x="909" d="M41 1579q0 57 72 57q81 0 81 1l-6 1q45 -2 70 -28l436 -436v397q0 27 20.5 47t47.5 20q29 0 49 -20.5t20 -46.5v-1503q0 -27 -20 -47.5t-49 -20.5q-27 0 -47.5 20.5t-20.5 47.5v829l-514 514v-1343q0 -27 -19.5 -47.5t-47.5 -20.5q-29 0 -49.5 20.5t-20.5 47.5z" />
<glyph unicode="O" horiz-adv-x="1751" d="M0 811q0 203 92 384t264 302q215 152 480 152q201 0 378 -93q187 -94 306 -264q151 -216 151 -476q0 -204 -92 -386t-264 -301q-215 -152 -479 -152q-201 0 -379 91q-186 94 -305 266q-152 215 -152 477zM180 870q0 -227 135 -421q104 -150 259 -232t319 -82 q190 0 342 107q256 180 256 512q0 229 -135 424q-104 147 -259 229t-319 82q-190 0 -342 -107q-256 -178 -256 -512zM707 811q0 27 52 79t77 52t77 -52t52 -75q0 -27 -51 -80t-78 -53q-25 0 -77 53t-52 76z" />
<glyph unicode="P" horiz-adv-x="911" d="M12 98v1442q0 41 29 69.5t70 28.5h2h323q158 0 269 -102q143 -134 143 -406q0 -532 -502 -532q-78 0 -78 66q0 69 78 69h2h43q90 0 170 90q103 112 103 308q0 199 -105 299q-73 71 -165 71h-3h-22q-164 0 -160 0v-1403q0 -41 -28.5 -69.5t-69.5 -28.5t-70 28.5t-29 69.5z " />
<glyph unicode="Q" horiz-adv-x="2023" d="M-35 809q0 203 93.5 386t267.5 304q217 154 481 154q203 0 387 -94.5t305 -266.5q152 -217 152 -483q0 -371 -273 -621q70 -51 140 -100q78 -51 151 -65q18 -4 35 -5q49 0 101.5 32t74.5 32q72 0 72 -78q0 -53 -29 -72q-55 -36 -135 -36h-4q-35 0 -98 8q-172 20 -424 194 q-207 -133 -453 -133q-203 0 -383 92q-188 96 -309 269q-152 217 -152 483zM147 868q0 -231 136 -426q51 -74 114 -131q27 74 156 117q102 35 209 37h4q222 0 494 -195q210 183 210 477q0 234 -137 429q-106 152 -260.5 233.5t-322.5 81.5q-190 0 -344 -107 q-258 -180 -259 -516zM539 246q0 -37 47 -58q137 -61 280 -61q144 0 269 61q-59 41 -119 80q-143 92 -256 92q-47 0 -98.5 -10t-87 -40.5t-35.5 -63.5z" />
<glyph unicode="R" horiz-adv-x="1294" d="M2 90v1446q0 41 28.5 69.5t69.5 28.5h2h2h324q156 0 262 -102q141 -133 141 -408q0 -231 -210 -405q236 0 426 -178q198 -189 198 -449q0 -51 -29.5 -81.5t-70.5 -30.5t-71 31.5t-32 90.5q-4 487 -534 488h-143h-13.5h-15.5q-78 0 -78 67q0 70 82 70h43q88 0 166 88 q96 113 96 305v8q0 199 -98 297q-72 72 -164 72h-184v-1407q0 -41 -29 -70.5t-70 -29.5t-69.5 29.5t-28.5 70.5z" />
<glyph unicode="S" horiz-adv-x="1292" d="M-23 496q0 41 9 82q10 57 47 93t76 36q75 0 75 -100q0 -32 -10 -87t-10 -84q0 -170 145 -260q110 -70 256 -70h23q190 6 313 121q117 109 117 256q0 190 -195 310q-203 109 -403 217q-210 131 -210 284q0 10 1 19q14 172 143 266q99 72 218 72q18 0 36 -2q127 -8 219 -68 q59 -39 60 -92q0 -33 -22.5 -56.5t-55.5 -23.5q-43 0 -84 43q-63 68 -203 68q-88 0 -119 -37q-45 -55 -45 -107q0 -98 203 -215q197 -106 391 -213q219 -139 248 -286q12 -63 12 -123q0 -252 -198 -414q-182 -145 -424 -145q-238 0 -422 145q-190 154 -191 371z" />
<glyph unicode="T" horiz-adv-x="790" d="M-8 1546q0 35 31.5 63.5t66.5 28.5h739q47 0 48 -45q0 -33 -32 -62.5t-67 -29.5h-246v-1403q0 -41 -28.5 -69.5t-69.5 -28.5t-69.5 28.5t-28.5 69.5v1403h-297q-47 0 -47 45z" />
<glyph unicode="U" horiz-adv-x="759" d="M39 301v1233q0 43 28.5 71.5t69.5 28.5q43 0 72 -28.5t29 -71.5v-1264q0 -63 45 -108t106 -45h2q63 0 108.5 45t45.5 108v1295q0 29 20.5 49t48.5 20q29 0 48.5 -20.5t19.5 -48.5v-1264q0 -133 -93 -227t-227 -94h-2q-133 0 -227 94t-94 227z" />
<glyph unicode="V" horiz-adv-x="1048" d="M-2 1563q0 75 76 75h2q41 0 80 -28.5t49 -69.5l332 -1423l329 1454q6 27 34 47t58 20q27 0 43.5 -20t8.5 -47l-367 -1489q-20 -82 -133 -82q-119 0 -141 86l-369 1454q-2 12 -2 23z" />
<glyph unicode="W" horiz-adv-x="1398" d="M14 1540q-2 9 -2 17q0 29 22 51q28 30 72 30q41 0 74 -28.5t39 -69.5l201 -1311l196 1280q20 129 132 129q111 0 129 -127l196 -1282l205 1340q12 69 78 69h2q29 0 50 -20t17 -49l-245 -1479q-14 -90 -136 -90q-121 0 -139 98l-188 1219l-191 -1227q-14 -90 -133 -90 q-123 0 -141 98z" />
<glyph unicode="X" horiz-adv-x="827" d="M29 68l55 594q0 80 45 161.5t104 83.5h-2q-48 0 -86 76q-37 70 -41 143l-28 420v5q0 37 26 61q28 26 66 26q37 0 63.5 -26.5t28.5 -65.5l27 -448q4 -59 44 -100.5t97 -41.5h2q59 0 99 41t42 101l29 477q2 63 64 63q27 0 46 -18t17 -45l-27 -449q-4 -70 -46 -144.5 t-85 -74.5q55 0 103.5 -83t48.5 -162l53 -564q0 -41 -28.5 -69.5t-69.5 -28.5t-69.5 28.5t-28.5 69.5l-54 594q0 61 -45 105.5t-106 44.5h-2q-63 0 -107.5 -44t-44.5 -106l-53 -624q0 -29 -20.5 -48.5t-49.5 -19.5q-27 0 -47 19.5t-20 48.5z" />
<glyph unicode="Y" horiz-adv-x="731" d="M18 911v629q0 41 29 69.5t70 28.5t69.5 -28.5t28.5 -69.5v-659q0 -61 44 -105.5t108 -44.5h2q61 0 105 44t44 106v690q0 27 20.5 47t49.5 20t48 -20.5t19 -46.5v-660q0 -104 -61.5 -187t-157.5 -116v-510q0 -41 -29.5 -69.5t-68.5 -28.5q-41 0 -69.5 28.5t-28.5 69.5v510 q-98 33 -160 116t-62 187z" />
<glyph unicode="Z" horiz-adv-x="735" d="M-6 176q0 39 14 76l492 1225q10 25 -17 24h-348q-53 0 -53 51q0 35 26.5 60.5t61.5 25.5h338q74 0 124 -51t50 -125q0 -39 -14 -76l-498 -1222q-10 -27 18 -27h445q53 0 53 -51q0 -35 -27.5 -60.5t-62.5 -25.5h-428q-74 0 -124 51t-50 125z" />
<glyph unicode="a" horiz-adv-x="997" d="M144 556q113 88 292 88q15 0 31 -1h26q217 0 232 127q0 113 -147 113q-80 0 -172 -29q-10 -4 -91 -39q-55 -24 -87 -24h-3q-84 0 -84 51q0 41 78 78q133 61 318 65h27q352 0 351 -260v-629q0 -96 -94 -96q-96 0 -96 96v473q-35 -35 -111 -41q-12 -2 -159 -2 q-111 -2 -174 -63q-55 -55 -60 -141v-10q0 -93 72 -144q66 -47 172 -47q68 0 133 18q12 4 23 4q47 0 47 -41q0 -33 -35 -51q-99 -52 -203 -52q-11 0 -22 1q-141 8 -256 88q-132 89 -132 219q0 152 124 249z" />
<glyph unicode="b" horiz-adv-x="1036" d="M6 100v1436q0 41 28.5 69.5t69.5 28.5t70 -28.5t29 -69.5v-604q139 51 243 53h6q498 0 504 -493v-7q0 -213 -127 -349q-129 -140 -319 -140q-111 0 -221 51q-47 23 -47 59q0 25 22 35q25 12 62 0q70 -28 138 -28h5q121 0 193 80q88 98 88 305q0 127 -54 227 q-57 111 -153 135q-47 10 -94 10q-127 0 -246 -84v-686q0 -41 -29 -69.5t-70 -28.5t-69.5 28.5t-28.5 69.5z" />
<glyph unicode="c" horiz-adv-x="972" d="M0 507q0 216 182 357q172 133 404 133q141 0 272 -67q51 -20 51 -70q0 -27 -25.5 -45t-56.5 -18q-29 0 -55 16q-109 70 -225 70q-59 0 -119 -19q-113 -35 -170 -137q-51 -91 -51 -208v-9q2 -135 72 -238q74 -109 194 -147q94 -33 186 -33t187 31q23 8 43 8q39 0 39 -25 q0 -20 -37 -40q-143 -86 -309 -86q-256 0 -418 146q-164 148 -164 381z" />
<glyph unicode="d" horiz-adv-x="1085" d="M0 492q2 229 149.5 358t409.5 129q131 -2 246 -43v594q0 41 28.5 69.5t67.5 28.5q41 0 69.5 -28.5t28.5 -69.5v-1438q0 -39 -28.5 -67.5t-69.5 -28.5q-39 0 -67.5 28.5t-28.5 67.5v688q-131 92 -258 92q-43 0 -84 -10q-102 -27 -175 -127t-73 -219q0 -213 109 -319 q88 -86 225 -86q70 0 131 22q37 14 61 2q23 -10 23 -37q0 -37 -47 -57q-109 -51 -225 -51q-203 0 -345 139q-147 140 -147 354v9z" />
<glyph unicode="e" horiz-adv-x="1021" d="M0 509q0 212 180 351q168 131 395 131q158 -2 267 -53q143 -68 143 -203q-10 -123 -135 -123h-469q-68 0 -68 64q0 29 20.5 48t47.5 19h412q2 123 -256 134q-154 -1 -245 -99q-89 -96 -89 -261v-7q2 -131 72.5 -235.5t189.5 -143.5q94 -31 184 -31t185 31q23 6 40 6 q39 0 39 -22q0 -20 -36 -43q-141 -84 -306 -84q-249 0 -409 144q-162 146 -162 377z" />
<glyph unicode="f" horiz-adv-x="1069" d="M-27 -186q0 59 86 59q16 0 33 -2q53 -12 72 -12q92 0 155 88q57 82 58 178v731h-109q-53 0 -53 66q0 27 23.5 46t52.5 19h86v248q0 145 106 262q123 131 320 131h67q66 0 66 -65q0 -66 -66 -66h-102q-80 0 -139 -43q-66 -51 -66 -135v-332h369h2q53 0 53 -65 q0 -27 -23.5 -46.5t-52.5 -19.5h-348v-639q0 -168 -94 -307q-121 -178 -334 -178q-76 0 -127 30q-35 23 -35 52z" />
<glyph unicode="g" horiz-adv-x="1429" d="M-41 -319q0 33 4 67q8 51 50 86t91 35q84 0 84 -98q0 -18 -6 -59.5t-6 -61.5q0 -190 172 -336q164 -137 373 -154q25 -2 49 -2q202 0 370 136q189 151 201 387q2 32 2 63q0 317 -217 457q-145 96 -360 98q-2 0 -61 2q-186 2 -311 103q-118 94 -118 224v17 q8 143 147.5 243.5t328.5 100.5q145 0 260 -63q143 137 235 137q55 0 86 -49q25 -37 25 -78q0 -20 -6 -18q-20 4 -47 4q-66 0 -121 -19q-63 -23 -72 -55q76 -84 76 -188v-15q-10 -178 -209 -280q258 -41 423 -210t165 -393q0 -315 -305 -522q-256 -170 -548 -170 q-28 0 -57 2q-293 16 -495.5 192.5t-202.5 416.5zM471 674q0 -123 93 -215q84 -83 192 -83q12 0 24 1q92 8 152.5 75.5t60.5 163.5q0 123 -93 215q-84 83 -192 83q-12 0 -24 -1q-94 -8 -153.5 -75.5t-59.5 -163.5z" />
<glyph unicode="h" horiz-adv-x="956" d="M10 100v1440q0 41 29 69.5t70 28.5t69.5 -28.5t28.5 -69.5v-627q43 74 242 74q428 0 428 -317v-572q0 -41 -29 -69.5t-70 -28.5t-69.5 28.5t-28.5 69.5v570q0 202 -245 202h-7q-94 0 -157.5 -41t-63.5 -104v-625q0 -41 -28.5 -69.5t-69.5 -28.5t-70 28.5t-29 69.5z" />
<glyph unicode="i" horiz-adv-x="331" d="M41 1522v10q1 42 31 72q34 34 86 34q48 0 82 -34q32 -32 33 -77q0 -3 -1 -5l-26 -322q-2 -43 -27 -78q-27 -41 -63 -41q-39 0 -66 41q-25 35 -27 78zM57 98v774q0 41 29 70t70 29t69.5 -29t28.5 -70v-774q0 -41 -28.5 -69.5t-69.5 -28.5t-70 28.5t-29 69.5z" />
<glyph unicode="j" horiz-adv-x="677" d="M0 -373q0 59 86 60q16 0 31 -2q53 -12 71 -13q92 0 156 88q57 80 57 179v944q-1 6 -1 11q0 36 23 60q26 29 73 31q45 0 70 -31q23 -26 23 -60q0 -5 -1 -11v-854q0 -166 -94 -308q-121 -176 -332 -176q-76 0 -127 31q-35 23 -35 51zM389 1505v11q0 42 28 70q32 32 81 32 q47 0 80 -32q28 -28 28 -70v-11l-20 -303q-4 -39 -25 -74q-26 -38 -59 -38h-2q-37 0 -61.5 36.5t-26.5 75.5z" />
<glyph unicode="k" horiz-adv-x="909" d="M12 98v1442q0 41 29 69.5t70 28.5t69.5 -28.5t28.5 -69.5v-913l334 297q70 47 166 47q102 0 102 -41q0 -23 -43 -47l-360 -256h22q242 0 328 -95q90 -102 110 -415v-12q0 -45 -26 -73q-30 -32 -74 -32q-96 0 -102 104q-12 274 -78 339t-326 65h-53v-410 q0 -39 -28.5 -68.5t-69.5 -29.5t-70 29.5t-29 68.5z" />
<glyph unicode="l" horiz-adv-x="319" d="M41 98v1442q0 41 28.5 69.5t69.5 28.5t70 -28.5t29 -69.5v-1442q0 -41 -29 -69.5t-70 -28.5t-69.5 28.5t-28.5 69.5z" />
<glyph unicode="m" horiz-adv-x="1497" d="M41 100v783q0 41 28.5 69.5t71.5 28.5q41 0 70 -28.5t29 -69.5v-2q27 45 96 75q63 29 121 29q164 0 276 -90q78 90 277 90q412 0 411 -330v-555q0 -43 -29.5 -71.5t-70.5 -28.5t-70.5 28.5t-29.5 71.5v553q0 113 -39 158q-45 49 -164 49q-84 0 -132 -40t-48 -89v-631 q0 -43 -29 -71.5t-70 -28.5q-43 0 -71.5 28.5t-28.5 71.5v592q0 90 -43 129t-160 39q-92 -2 -144 -52t-52 -118v-590q0 -41 -29 -70.5t-70 -29.5q-43 0 -71.5 29.5t-28.5 70.5z" />
<glyph unicode="n" horiz-adv-x="991" d="M41 98v789q0 41 28.5 69.5t69.5 28.5t71 -28.5t30 -69.5v-2q25 43 108 76q72 28 129 28h4q432 0 432 -330v-561q0 -41 -28.5 -69.5t-69.5 -28.5t-69.5 28.5t-28.5 69.5v559q0 207 -256 207q-92 0 -156.5 -52t-64.5 -118v-596q0 -41 -30 -69.5t-71 -28.5t-69.5 28.5 t-28.5 69.5z" />
<glyph unicode="o" horiz-adv-x="1138" d="M20 492q0 211 155 359t372 148q219 0 372.5 -148t153.5 -359t-153.5 -359.5t-372.5 -148.5q-217 0 -372 148.5t-155 359.5zM209 551q0 -45 10 -92q33 -155 154 -259q107 -92 226 -92q15 0 30 1q115 10 186.5 100t71.5 217q0 47 -10 92q-35 156 -156 262q-108 95 -227 95 q-15 0 -29 -1q-113 -10 -184.5 -102t-71.5 -221z" />
<glyph unicode="p" horiz-adv-x="1024" d="M0 -557v1438q0 41 28.5 71.5t69.5 30.5q70 0 90 -76q2 -4 5 0q14 27 67 49q68 27 166 27q504 0 510 -494v-7q0 -214 -128 -350q-130 -138 -321 -138q-111 0 -221 51q-47 20 -47 57q0 27 23 37q25 12 61 -2q69 -26 138 -26h5q121 0 195 79q88 98 88 304q0 129 -53 229 q-57 111 -156 135q-45 10 -94 10q-178 0 -229 -116v-1309q0 -41 -29 -69.5t-70 -28.5t-69.5 28.5t-28.5 69.5z" />
<glyph unicode="q" horiz-adv-x="1226" d="M-20 487q6 494 505 494h4q98 0 166 -27q53 -20 68 -47q2 -6 4 0q20 74 90 74q41 0 69.5 -30.5t28.5 -71.5l3 -1246q0 -202 145 -202h4q96 2 150 51q33 33 73 33q31 0 54.5 -19.5t23.5 -44.5t-27 -43q-145 -98 -278 -98q-342 4 -342 381v196v863q-53 118 -229 118h-3 q-49 0 -94 -12q-98 -25 -155 -135q-53 -100 -54 -229q0 -385 283 -386q72 0 143 29q37 14 62 2q23 -12 22 -37q0 -37 -47 -59q-111 -51 -221 -51q-193 0 -322 139q-126 136 -126 348v10z" />
<glyph unicode="r" horiz-adv-x="739" d="M20 98v781q0 41 29 69.5t70 28.5t69.5 -28.5t28.5 -69.5v-2q61 106 254 106q80 0 152 -20q45 -12 45 -66q0 -33 -18.5 -58.5t-47.5 -25.5q-12 0 -24 6q-61 23 -140 23q-92 0 -151 -35q-70 -41 -70 -119v-590q0 -41 -28.5 -69.5t-69.5 -28.5t-70 28.5t-29 69.5z" />
<glyph unicode="s" horiz-adv-x="987" d="M0 291q0 31 6 65q16 74 107 74q88 0 88 -72q0 -14 -9.5 -43.5t-9.5 -50.5q0 -86 97 -141q78 -47 170 -47q106 0 189 61.5t83 149.5q0 115 -127 176q-10 6 -174 76q-98 43 -166 90q-85 47 -85 135q0 11 1 22q10 96 104 158q79 53 173 53q17 0 34 -2q55 -4 119 -26 q94 -35 94 -86q0 -66 -67 -66q-41 0 -86 29q-74 43 -131 43q-20 0 -41 -4q-37 -14 -37 -51q0 -47 39 -74q66 -41 184 -96q147 -66 211 -101q152 -82 156 -229v-9q0 -162 -148 -257q-133 -86 -325 -86q-186 0 -314 77q-135 86 -135 232z" />
<glyph unicode="t" horiz-adv-x="737" d="M0 909q0 27 24.5 47.5t55.5 20.5h121v299q0 41 29.5 69.5t70.5 28.5t69.5 -28.5t28.5 -69.5v-299h150q59 0 59 -68q0 -29 -25.5 -49t-54.5 -20h-129v-742q0 -41 -28.5 -69.5t-69.5 -28.5t-70.5 28.5t-29.5 69.5v742h-144q-57 0 -57 69z" />
<glyph unicode="u" horiz-adv-x="987" d="M41 315v557q0 41 28.5 70t69.5 29t70 -29t29 -70v-555q0 -204 252 -204h2q90 0 155.5 51t65.5 117v591q0 41 28.5 70t69.5 29q39 0 68.5 -29t29.5 -70v-782q0 -41 -29.5 -69.5t-68.5 -28.5q-41 0 -69.5 28.5t-28.5 69.5v2q-27 -43 -109 -76q-72 -28 -129 -28h-4 q-430 0 -430 327z" />
<glyph unicode="v" horiz-adv-x="931" d="M0 930q0 53 98 53q76 0 90 -43l267 -823l252 794q23 70 102 70q41 0 41 -31q0 -8 -4 -18l-283 -848q-27 -84 -139 -84q-117 0 -137 88l-285 830q-2 6 -2 12z" />
<glyph unicode="w" horiz-adv-x="1658" d="M0 930q0 53 98 53q76 0 90 -43l267 -823l252 794q23 72 127 72q68 0 81 -43l267 -823l252 794q23 70 102 70q41 0 41 -31q0 -8 -4 -18l-283 -848q-27 -84 -139 -84q-117 0 -137 88l-228 664l-223 -668q-27 -84 -139 -84q-117 0 -137 88l-285 830q-2 6 -2 12z" />
<glyph unicode="x" horiz-adv-x="839" d="M20 41l56 340q27 162 153 164h-4q-49 0 -90 53q-39 49 -39 92l-26 238q0 55 92 55t92 -55l29 -254q8 -84 143 -84h2q133 0 143 84l27 270q0 39 66 39q63 0 63 -39l-27 -254q0 -41 -44 -93t-89 -52q57 0 99.5 -47t54.5 -117l55 -322q0 -25 -29.5 -42t-70.5 -17t-69.5 17.5 t-28.5 41.5l-56 340q-14 90 -153 90h-2q-139 0 -154 -90l-55 -358q0 -41 -68 -41q-70 0 -70 41z" />
<glyph unicode="y" horiz-adv-x="1015" d="M20 -522q0 37 31 62.5t74 25.5q59 0 113 -47q131 -117 258 -117q100 0 165.5 69.5t65.5 168.5v450q-27 -45 -111 -78q-72 -28 -131 -28h-4q-436 0 -436 331v568q0 41 28.5 70.5t71.5 29.5q41 0 70 -29.5t29 -70.5v-566q0 -206 251 -206h7q94 0 159.5 52t65.5 118v602 q0 41 29.5 70.5t70.5 29.5t71 -29.5t30 -70.5v-1245q0 -158 -189 -263q-151 -81 -309 -81q-17 0 -35 1q-172 10 -295 78q-80 43 -80 105z" />
<glyph unicode="z" horiz-adv-x="808" d="M0 150q0 55 43 104l477 563q12 27 -16 27h-381q-53 0 -53 51q0 35 27.5 61.5t62.5 26.5h428q59 0 102 -43t43 -104q0 -57 -43 -107l-483 -565q-12 -27 16 -27h482q53 0 53 -49q0 -37 -27.5 -62.5t-62.5 -25.5h-512q-61 0 -108.5 44t-47.5 106z" />
<glyph unicode="&#xa2;" horiz-adv-x="907" d="M2 895q-2 162 115 283q109 109 276 145l-2 188q0 49 15 91q23 55 63 55q82 0 80 -146l-2 -176q113 -4 219 -59q45 -18 45 -62q0 -25 -22.5 -41t-49.5 -16t-51 17q-66 43 -143 55l-8 -694q109 -12 219 24q20 6 37 6q35 0 34 -22q1 -19 -32 -37q-121 -72 -260 -76l-5 -348 q0 -39 -14 -86q-18 -61 -47 -62q-31 0 -49 62q-12 47 -14 86l-5 356q-180 33 -289.5 157t-109.5 300zM184 901q2 -113 59.5 -204t157.5 -130l-8 654q-100 -25 -157 -121q-51 -88 -52 -199z" />
<glyph unicode="&#xad;" d="M113 543q0 35 26.5 58.5t53.5 23.5l589 20q57 2 95 -28.5t38 -75.5q0 -47 -38 -77t-95 -28l-589 23q-27 0 -53.5 23.5t-26.5 60.5z" />
<glyph unicode="&#xc4;" horiz-adv-x="978" d="M16 475q0 29 20.5 48.5t49.5 19.5h176v778q0 131 93.5 224t224.5 93h2q131 0 224 -93t93 -224v-1223q0 -41 -28.5 -69.5t-69.5 -28.5t-70 28.5t-29 69.5v308h-303v-338q0 -27 -20.5 -47.5t-48.5 -20.5q-29 0 -48.5 20.5t-19.5 47.5v338h-176q-29 0 -49.5 20t-20.5 49z M399 543h303v809q0 61 -44 105t-107 44h-2q-61 0 -105.5 -44t-44.5 -105v-809z" />
<glyph unicode="&#xc5;" horiz-adv-x="520" d="M-4 98v772q0 41 28.5 70t69.5 29t70 -29t29 -70v-772q0 -41 -29 -69.5t-70 -28.5t-69.5 28.5t-28.5 69.5zM45 1118q-10 49 6 90l309 721q20 47 62 62q45 18 92.5 -4.5t63.5 -67.5q14 -41 -9 -88l-352 -701q-18 -35 -55 -57q-43 -27 -76 -10q-31 14 -41 55z" />
<glyph unicode="&#xc7;" horiz-adv-x="2211" d="M-41 590q0 203 176 357.5t451 191.5q8 0 127 8l-258 235q-70 63 -70 131q0 117 174 117h549q68 0 68 -67q0 -68 -68 -68h-512l848 -764v273q0 66 46 111.5t112 45.5l333 -2q29 0 48.5 -19.5t19.5 -47.5q0 -27 -19.5 -47.5t-48.5 -20.5h-262v-500l420 -368q35 -31 35 -68 q0 -35 -31 -60.5t-72 -25.5q-43 0 -79 33l-322 287q-94 -178 -338 -279q-211 -86 -442 -86q-305 0 -574 160q-311 186 -311 473zM199 514q14 -215 219 -354q197 -137 444 -121q203 14 377 127q203 131 205 319l-615 557h-14q-651 -10 -616 -528z" />
<glyph unicode="&#x2000;" horiz-adv-x="1021" />
<glyph unicode="&#x2001;" horiz-adv-x="2042" />
<glyph unicode="&#x2002;" horiz-adv-x="1021" />
<glyph unicode="&#x2003;" horiz-adv-x="2042" />
<glyph unicode="&#x2004;" horiz-adv-x="680" />
<glyph unicode="&#x2005;" horiz-adv-x="510" />
<glyph unicode="&#x2006;" horiz-adv-x="340" />
<glyph unicode="&#x2007;" horiz-adv-x="340" />
<glyph unicode="&#x2008;" horiz-adv-x="255" />
<glyph unicode="&#x2009;" horiz-adv-x="408" />
<glyph unicode="&#x200a;" horiz-adv-x="113" />
<glyph unicode="&#x2010;" d="M113 543q0 35 26.5 58.5t53.5 23.5l589 20q57 2 95 -28.5t38 -75.5q0 -47 -38 -77t-95 -28l-589 23q-27 0 -53.5 23.5t-26.5 60.5z" />
<glyph unicode="&#x2011;" d="M113 543q0 35 26.5 58.5t53.5 23.5l589 20q57 2 95 -28.5t38 -75.5q0 -47 -38 -77t-95 -28l-589 23q-27 0 -53.5 23.5t-26.5 60.5z" />
<glyph unicode="&#x2012;" d="M113 543q0 35 26.5 58.5t53.5 23.5l589 20q57 2 95 -28.5t38 -75.5q0 -47 -38 -77t-95 -28l-589 23q-27 0 -53.5 23.5t-26.5 60.5z" />
<glyph unicode="&#x2013;" horiz-adv-x="1303" d="M113 543q0 35 34 58.5t68 23.5l752 20q73 2 121.5 -28.5t48.5 -75.5q0 -47 -48.5 -77t-121.5 -28l-752 23q-34 0 -68 23.5t-34 60.5z" />
<glyph unicode="&#x2014;" horiz-adv-x="2327" d="M113 543q0 35 67.5 58.5t136.5 23.5l1504 20q146 2 243 -28.5t97 -75.5q0 -47 -97 -77t-243 -28l-1504 23q-69 0 -136.5 23.5t-67.5 60.5z" />
<glyph unicode="&#x2018;" horiz-adv-x="266" d="M33 1493l98 -276q12 -35 44 -63t65 -19q35 8 47 51q12 37 6 74l-57 288q-8 45 -46 66.5t-84 9.5q-45 -12 -66 -50t-7 -81z" />
<glyph unicode="&#x2019;" horiz-adv-x="262" d="M41 1260l55 288q10 45 48 66.5t83 9.5q43 -12 65.5 -50t6.5 -81l-96 -276q-12 -35 -44 -63t-65 -19q-35 8 -49 51q-12 37 -4 74z" />
<glyph unicode="&#x201c;" horiz-adv-x="501" d="M33 1493l98 -276q12 -35 44 -63t65 -19q35 8 47 51q12 37 6 74l-57 288q-8 45 -46 66.5t-84 9.5q-45 -12 -66 -50t-7 -81zM299 1493l98 -276q12 -35 44 -63t65 -19q35 8 47 51q12 37 6 74l-57 288q-8 45 -46 66.5t-83 9.5t-66.5 -50t-7.5 -81z" />
<glyph unicode="&#x201d;" horiz-adv-x="501" d="M41 1260l55 288q10 45 48 66.5t83 9.5q43 -12 65.5 -50t6.5 -81l-96 -276q-12 -35 -44 -63t-65 -19q-35 8 -49 51q-12 37 -4 74zM307 1260l55 288q10 45 48.5 66.5t83.5 9.5q43 -12 65 -50t6 -81l-96 -276q-12 -35 -44 -63t-65 -19q-35 8 -49 51q-12 37 -4 74z" />
<glyph unicode="&#x2022;" horiz-adv-x="483" d="M29 469q0 37 80.5 118t117.5 81q41 0 122 -81t81 -122q0 -37 -81 -119t-118 -82q-41 0 -121.5 82t-80.5 123z" />
<glyph unicode="&#x2026;" horiz-adv-x="811" d="M12 86q0 23 50.5 73t74.5 50q25 0 75 -50t50 -75t-50 -75t-75 -50t-75 50t-50 77zM340 63q0 18 38 56.5t54 38.5q20 0 58 -38t38 -59q0 -16 -39 -54t-55 -38q-20 0 -57 38t-37 56zM596 47q0 14 27.5 43t42.5 29q14 0 42.5 -29t28.5 -43t-28.5 -42t-42.5 -28t-42 28 t-28 42z" />
<glyph unicode="&#x202f;" horiz-adv-x="408" />
<glyph unicode="&#x205f;" horiz-adv-x="510" />
<glyph unicode="&#x25fc;" horiz-adv-x="983" d="M0 0v983h983v-983h-983z" />
</font>
</defs>
</svg>
